<svg width="82" height="38" viewBox="0 0 82 38" fill="none" xmlns="http://www.w3.org/2000/svg">
<path d="M18.4935 37.5073H18.3373C18.3373 37.5073 18.1985 37.5073 18.1291 37.5073C17.4005 37.49 16.7239 37.4379 16.0647 37.3339C15.8044 37.2992 15.5616 37.2645 15.336 37.2124C15.1626 37.1777 15.0064 37.1604 14.8676 37.1257C12.3174 36.5705 9.87127 35.4776 7.59862 33.8468L7.19961 33.5172L7.06082 33.4131C5.44742 32.1814 4.11158 30.7414 3.07068 29.1454C1.0756 26.04 0 22.4662 0 18.8057V18.7363C0 18.5455 0 18.3546 0 18.1638C0 17.973 0.0173485 17.7475 0.0346969 17.5393C0.0346969 17.3137 0.0693938 17.0882 0.0867423 16.8627C0.537802 12.3174 2.60227 8.10171 5.89847 4.99634C8.30991 2.70634 11.3979 1.12764 14.8329 0.416348H14.9023C15.0411 0.381652 15.1799 0.346955 15.3187 0.329606C16.2729 0.156122 17.227 0.0693793 18.1465 0.0346824C18.3026 0.0346824 18.4588 0.0346824 18.6149 0.0346824H18.7537C22.7785 0.0346824 26.6819 1.30112 29.7353 3.59112C31.4527 4.89225 33.4478 6.92202 35.0092 8.46603C36.4665 9.8886 38.288 11.7969 39.728 13.2369C40.8383 14.3472 41.9312 15.4401 43.0242 16.5504L44.0998 17.6434C44.4467 17.9903 44.7937 18.3373 45.1407 18.6843C38.5656 12.0745 39.5198 13.1154 46.1989 19.7425C48.2287 21.7896 49.9462 23.5245 51.7157 25.2767L51.8372 25.3981C53.0689 26.6299 54.4568 28.0177 56.0876 29.0933C58.0132 30.3598 60.2512 31.0364 62.5759 31.0364C65.8027 31.0364 68.9775 29.7005 71.2848 27.3585C74.2514 24.3572 75.4137 19.8813 74.3381 15.7003C74.0085 14.4166 73.4707 13.1848 72.7247 12.0745C71.9787 10.9642 71.0419 9.97535 69.949 9.14262L69.9143 9.10792L69.8275 9.05588C69.2897 8.63951 68.6825 8.2752 68.058 7.96293C66.3405 7.0955 64.4322 6.62709 62.5238 6.62709C61.587 6.62709 60.6502 6.73119 59.7307 6.95672C59.1582 7.0955 58.6204 7.26899 58.1173 7.47717L57.9785 7.52921C57.4407 7.77209 56.955 8.01497 56.5039 8.30989C53.971 9.85391 45.1754 18.5628 44.0998 21.6682L43.8048 21.3906L39.2422 16.7586C40.9771 13.6012 50.137 4.8402 52.8434 3.03596C55.463 1.28377 58.3429 0.277561 61.3788 0.0520309C61.587 0.0520309 61.8125 0.0346824 62.0381 0.017334H62.0728H62.1075C62.2116 0.017334 62.3157 0.017334 62.4197 0.017334H62.6973C66.5313 0.017334 70.2959 1.28377 73.6442 3.67786L74.0606 4.02483L74.1993 4.12892C75.8127 5.36066 77.1486 6.80058 78.1721 8.39664C83.1685 16.1167 81.9888 26.2655 75.3617 32.5457C72.0308 35.7031 67.3467 37.5073 62.5065 37.5073C58.4643 37.5073 54.5609 36.2409 51.5076 33.9336C49.7554 32.6151 48.1073 30.9843 46.5112 29.4056L45.9387 28.8505C44.5508 27.4799 43.1109 26.0227 41.5149 24.4266C40.9597 23.8715 40.4046 23.3163 39.8667 22.7612L39.034 21.9111C38.0972 20.9743 37.1604 20.0028 36.2062 19.0486L34.3846 17.227C33.708 16.5504 33.0141 15.8565 32.3202 15.1799C30.6721 13.5318 29.0413 11.9357 27.48 10.4264C26.6125 9.59368 25.6757 8.86505 24.6695 8.29255C24.1837 8.01497 23.7327 7.78944 23.2469 7.58126C22.7265 7.35573 22.154 7.14755 21.5294 6.97406C21.3213 6.92202 21.1304 6.86997 20.9569 6.85262C20.1589 6.67914 19.3435 6.57505 18.5108 6.57505C16.0994 6.57505 13.7747 7.33838 11.7796 8.7783C11.6755 8.8477 11.5714 8.91709 11.4847 9.00383C9.36817 10.6172 7.78946 12.9419 6.88734 15.7003C6.85264 15.7871 6.83529 15.8912 6.81794 15.9779C6.78325 16.1167 6.74855 16.2728 6.7312 16.4116C6.40158 18.1638 6.45363 20.0374 6.90469 21.807C7.23431 23.1081 7.77211 24.3225 8.51809 25.4328C9.26407 26.5605 10.2009 27.532 11.3112 28.3647L11.3806 28.4341C11.9184 28.8505 12.5082 29.2148 13.1675 29.5444C14.8676 30.4118 16.7933 30.8802 18.7016 30.8802C18.9619 30.8802 19.2221 30.8802 19.465 30.8629C20.1763 30.8108 20.8528 30.7241 21.4947 30.5506C22.0152 30.4292 22.553 30.2557 23.0908 30.0475L23.1602 30.0128L23.2816 29.9608C23.7327 29.7699 24.2358 29.5097 24.7042 29.1974C27.2371 27.6534 35.8419 19.1874 36.9175 16.0647L37.2124 16.3422L41.7751 20.9743C40.0402 24.1317 31.0711 32.6671 28.3647 34.4714C25.7451 36.2236 22.8653 37.2298 19.8293 37.4553C19.6211 37.4553 19.3956 37.4726 19.17 37.49H19.118H19.066C19.0313 37.49 19.0139 37.49 18.9792 37.49H18.8751H18.8231H18.719H18.4935H18.5108H18.4241L18.4935 37.5073ZM37.6115 37.5073V29.5618L43.4926 35.6337V37.5247H37.6115V37.5073ZM37.8023 1.90832V0.0346824H43.6834V7.98027L37.8023 1.90832Z" fill="#AB0013"/>
<path d="M43.7007 0H37.594V37.5421H43.7007V0Z" fill="#AB0013"/>
</svg>
