<svg
                      xmlns="http://www.w3.org/2000/svg"
                      width="16"
                      height="4"
                      viewBox="0 0 16 4"
                      fill="none"
                    >
                      <path
                        d="M8.2941 2.86541C8.77203 2.86541 9.15948 2.47797 9.15948 2.00003C9.15948 1.52209 8.77203 1.13464 8.2941 1.13464C7.81616 1.13464 7.42871 1.52209 7.42871 2.00003C7.42871 2.47797 7.81616 2.86541 8.2941 2.86541Z"
                        fill="#9F9F9F"
                        stroke="#9F9F9F"
                        stroke-width="1.15385"
                        stroke-linecap="round"
                        stroke-linejoin="round"
                      />
                      <path
                        d="M14.3517 2.86541C14.8297 2.86541 15.2171 2.47797 15.2171 2.00003C15.2171 1.52209 14.8297 1.13464 14.3517 1.13464C13.8738 1.13464 13.4863 1.52209 13.4863 2.00003C13.4863 2.47797 13.8738 2.86541 14.3517 2.86541Z"
                        fill="#9F9F9F"
                        stroke="#9F9F9F"
                        stroke-width="1.15385"
                        stroke-linecap="round"
                        stroke-linejoin="round"
                      />
                      <path
                        d="M2.23648 2.86541C2.71442 2.86541 3.10186 2.47797 3.10186 2.00003C3.10186 1.52209 2.71442 1.13464 2.23648 1.13464C1.75854 1.13464 1.37109 1.52209 1.37109 2.00003C1.37109 2.47797 1.75854 2.86541 2.23648 2.86541Z"
                        fill="#9F9F9F"
                        stroke="#9F9F9F"
                        stroke-width="1.15385"
                        stroke-linecap="round"
                        stroke-linejoin="round"
                      />
                    </svg>
